<svg width="98" height="67" viewBox="0 0 98 67" fill="none" xmlns="http://www.w3.org/2000/svg">
<path d="M48.5007 16.8396L67.8059 48.4991L24.8062 53.499L24.3062 52.999L23.8059 52.4991L48.5007 16.8396Z" fill="url(#paint0_linear_304_4104)"/>
<rect x="66.0195" width="3" height="20" transform="rotate(25.8322 66.0195 0)" fill="#85C9FF"/>
<rect x="97.0078" y="20" width="3" height="19.2077" transform="rotate(76.8146 97.0078 20)" fill="#B5E0FF"/>
<rect x="85.2266" y="36" width="3" height="9.9209" transform="rotate(89.6348 85.2266 36)" fill="#85C9FF"/>
<rect x="81.5977" y="5" width="3" height="9.9209" transform="rotate(39.3587 81.5977 5)" fill="#B5E0FF"/>
<rect x="73.5195" y="27.8848" width="3" height="6.88809" transform="rotate(97.3815 73.5195 27.8848)" fill="#FFCD2A"/>
<path d="M24.8047 52.4995C21.3956 52.113 16.0774 53.7632 16.0774 61.185C16.0774 68.6068 6.22893 65.8237 1.30469 63.5045" stroke="#71C3FF" stroke-width="2" stroke-linecap="round"/>
<circle cx="52.8047" cy="8.5" r="2.5" fill="#FFCD2A"/>
<circle cx="71.8047" cy="19.5" r="2.5" fill="#94E5AF"/>
<mask id="mask0_304_4104" style="mask-type:alpha" maskUnits="userSpaceOnUse" x="23" y="16" width="45" height="38">
<path d="M48.5007 16.8396L67.8059 48.4991L24.8062 53.499L24.3062 52.999L23.8059 52.4991L48.5007 16.8396Z" fill="url(#paint1_linear_304_4104)"/>
</mask>
<g mask="url(#mask0_304_4104)">
<rect x="18.5391" y="37" width="36" height="4" transform="rotate(33.9198 18.5391 37)" fill="url(#paint2_linear_304_4104)"/>
<rect x="27.5391" y="33" width="36" height="4" transform="rotate(33.9198 27.5391 33)" fill="url(#paint3_linear_304_4104)"/>
<rect x="36.5391" y="29" width="36" height="4" transform="rotate(33.9198 36.5391 29)" fill="url(#paint4_linear_304_4104)"/>
<rect x="38.3516" y="20.166" width="44.6618" height="4" transform="rotate(33.9198 38.3516 20.166)" fill="url(#paint5_linear_304_4104)"/>
</g>
<path d="M48.3032 16.999C44.303 18.9987 61.9364 50.4547 67.8033 48.499C72.3032 46.9989 55.3747 13.464 48.3032 16.999Z" fill="url(#paint6_linear_304_4104)"/>
<rect x="58.6797" y="23" width="3" height="6.54063" transform="rotate(41.9801 58.6797 23)" fill="#FFA2A2"/>
<circle cx="66.8047" cy="39.5" r="2.5" fill="#B5E0FF"/>
<defs>
<linearGradient id="paint0_linear_304_4104" x1="57.3936" y1="17.1164" x2="46.0056" y2="59.6172" gradientUnits="userSpaceOnUse">
<stop stop-color="#D5EDFF"/>
<stop offset="1" stop-color="#B5E0FF"/>
</linearGradient>
<linearGradient id="paint1_linear_304_4104" x1="57.3936" y1="17.1164" x2="46.0056" y2="59.6172" gradientUnits="userSpaceOnUse">
<stop stop-color="#D5EDFF"/>
<stop offset="1" stop-color="#B5E0FF"/>
</linearGradient>
<linearGradient id="paint2_linear_304_4104" x1="45.8174" y1="40.3475" x2="30.0002" y2="38.3308" gradientUnits="userSpaceOnUse">
<stop stop-color="#61B1EA"/>
<stop offset="1" stop-color="#96D3FF"/>
</linearGradient>
<linearGradient id="paint3_linear_304_4104" x1="54.8174" y1="36.3475" x2="39.0002" y2="34.3308" gradientUnits="userSpaceOnUse">
<stop stop-color="#61B1EA"/>
<stop offset="1" stop-color="#96D3FF"/>
</linearGradient>
<linearGradient id="paint4_linear_304_4104" x1="63.8174" y1="32.3475" x2="48.0002" y2="30.3308" gradientUnits="userSpaceOnUse">
<stop stop-color="#61B1EA"/>
<stop offset="1" stop-color="#96D3FF"/>
</linearGradient>
<linearGradient id="paint5_linear_304_4104" x1="72.1932" y1="23.5135" x2="52.7381" y2="20.4361" gradientUnits="userSpaceOnUse">
<stop stop-color="#61B1EA"/>
<stop offset="1" stop-color="#96D3FF"/>
</linearGradient>
<linearGradient id="paint6_linear_304_4104" x1="58.136" y1="16.7383" x2="58.136" y2="48.5865" gradientUnits="userSpaceOnUse">
<stop stop-color="#4A7A9D"/>
<stop offset="1" stop-color="#336488"/>
</linearGradient>
</defs>
</svg>
