<svg width="127" height="43" viewBox="0 0 127 43" fill="none" xmlns="http://www.w3.org/2000/svg">
<rect width="127" height="37" rx="12" fill="url(#paint0_linear_304_4128)"/>
<path d="M23.5732 15.7265C23.57 16.4227 23.7086 17.1172 23.989 17.8101C24.2693 18.503 24.6496 19.1234 25.1298 19.6713C25.6133 20.2192 26.1418 20.6349 26.7155 20.9185L26.0483 21.779C25.6068 21.547 25.1911 21.2392 24.8011 20.8557C24.4144 20.4689 24.0711 20.029 23.7714 19.5359C23.4749 19.0396 23.2364 18.511 23.0559 17.9503C22.8755 18.5433 22.6321 19.1041 22.326 19.6326C22.023 20.1611 21.6717 20.6301 21.2721 21.0394C20.8725 21.4454 20.4471 21.7693 19.9959 22.011L19.3191 21.1506C19.9024 20.8605 20.4374 20.4286 20.924 19.855C21.4107 19.2781 21.7958 18.6271 22.0794 17.9019C22.363 17.1768 22.5064 16.4517 22.5097 15.7265V13.5124H23.5732V15.7265ZM27.8273 12.4586H28.9006V17.3895H30.9309V18.3177H28.9006V24.6119H27.8273V12.4586ZM35.3115 14.7597C35.3115 15.285 35.434 15.7878 35.6789 16.268C35.927 16.7449 36.2751 17.1655 36.7231 17.5297C37.1743 17.8907 37.6964 18.1694 38.2894 18.366L37.777 19.2072C37.084 18.9784 36.4798 18.6335 35.9641 18.1727C35.4517 17.7118 35.0633 17.1736 34.7991 16.558C34.538 17.2541 34.1368 17.8633 33.5953 18.3854C33.0571 18.9075 32.4238 19.3006 31.6955 19.5649L31.1444 18.7044C31.7503 18.4982 32.2869 18.1968 32.7542 17.8004C33.2215 17.404 33.5857 16.9448 33.8467 16.4227C34.111 15.8973 34.2447 15.3462 34.248 14.7693V14.2472H31.4731V13.3577H38.038V14.2472H35.3115V14.7597ZM32.7687 22.3398C32.7687 21.8757 32.9298 21.4777 33.2521 21.1457C33.5744 20.8138 34.0385 20.5608 34.6444 20.3867C35.2503 20.2127 35.9689 20.1257 36.8004 20.1257C37.6287 20.1257 38.3426 20.2127 38.942 20.3867C39.5447 20.5608 40.0055 20.8138 40.3246 21.1457C40.6437 21.4777 40.8032 21.8757 40.8032 22.3398C40.8032 22.8103 40.6437 23.2132 40.3246 23.5483C40.0055 23.8835 39.5447 24.1397 38.942 24.317C38.3426 24.4942 37.6287 24.5829 36.8004 24.5829C35.9689 24.5829 35.2503 24.4942 34.6444 24.317C34.0385 24.1397 33.5744 23.8835 33.2521 23.5483C32.9298 23.2132 32.7687 22.8103 32.7687 22.3398ZM33.8419 22.3398C33.8387 22.6266 33.9547 22.8748 34.1899 23.0843C34.4284 23.2905 34.7701 23.4484 35.2148 23.558C35.6628 23.6676 36.1913 23.7224 36.8004 23.7224C37.4096 23.7224 37.9365 23.6676 38.3812 23.558C38.826 23.4484 39.166 23.2905 39.4013 23.0843C39.6398 22.8748 39.759 22.6266 39.759 22.3398C39.759 22.0594 39.6398 21.8177 39.4013 21.6146C39.166 21.4116 38.826 21.2569 38.3812 21.1506C37.9365 21.041 37.4096 20.9862 36.8004 20.9862C36.1913 20.9862 35.6628 21.041 35.2148 21.1506C34.7701 21.2569 34.4284 21.4116 34.1899 21.6146C33.9547 21.8177 33.8387 22.0594 33.8419 22.3398ZM39.6236 12.4586H40.6968V15.5622H42.5242V16.4613H40.6968V19.797H39.6236V12.4586ZM52.9089 19.3522H51.855V12.4586H52.9089V19.3522ZM43.6561 13.174H44.739V17.5055C45.7993 17.5023 46.7887 17.4588 47.7072 17.375C48.629 17.2912 49.5539 17.151 50.4821 16.9544L50.6465 17.8536C49.6506 18.0534 48.6741 18.1968 47.7169 18.2838C46.7597 18.3709 45.7349 18.4176 44.6423 18.424H43.6561V13.174ZM45.0194 19.9227H52.9089V24.4378H45.0194V19.9227ZM51.8647 23.5677V20.7831H46.0829V23.5677H51.8647ZM67.2097 15.4365H69.0371V16.326H67.2097V19.3619H66.1365V12.4586H67.2097V15.4365ZM57.6959 18.6174C58.6886 18.3499 59.5474 17.997 60.2726 17.5587C61.0009 17.1172 61.573 16.608 61.9887 16.0311C62.4077 15.451 62.6543 14.8209 62.7284 14.1409H58.2374V13.2514H63.8838C63.8805 14.2601 63.6501 15.1754 63.1925 15.9972C62.7381 16.8158 62.0806 17.52 61.2201 18.1098C60.3628 18.6964 59.3331 19.1524 58.131 19.4779L57.6959 18.6174ZM59.5039 19.913H67.2097V24.4378H59.5039V19.913ZM66.1462 23.5677V20.8122H60.5771V23.5677H66.1462ZM73.4853 15.7265C73.4821 16.4227 73.6207 17.1172 73.9011 17.8101C74.1814 18.503 74.5617 19.1234 75.0419 19.6713C75.5254 20.2192 76.0539 20.6349 76.6276 20.9185L75.9605 21.779C75.5189 21.547 75.1032 21.2392 74.7132 20.8557C74.3265 20.4689 73.9832 20.029 73.6835 19.5359C73.387 19.0396 73.1485 18.511 72.968 17.9503C72.7876 18.5433 72.5442 19.1041 72.2381 19.6326C71.9351 20.1611 71.5838 20.6301 71.1842 21.0394C70.7846 21.4454 70.3592 21.7693 69.908 22.011L69.2312 21.1506C69.8145 20.8605 70.3495 20.4286 70.8361 19.855C71.3228 19.2781 71.7079 18.6271 71.9915 17.9019C72.2751 17.1768 72.4186 16.4517 72.4218 15.7265V13.5124H73.4853V15.7265ZM77.7395 12.4586H78.8127V17.3895H80.843V18.3177H78.8127V24.6119H77.7395V12.4586ZM87.1766 15.4365H81.0758V14.5566H83.5993V12.826H84.6725V14.5566H87.1766V15.4365ZM81.5206 19.0138C81.5173 18.482 81.6269 18.0083 81.8493 17.5925C82.0749 17.1736 82.3859 16.8465 82.7823 16.6112C83.1819 16.3759 83.6315 16.2583 84.1311 16.2583C84.6338 16.2583 85.0834 16.3759 85.4798 16.6112C85.8794 16.8465 86.1921 17.1736 86.4177 17.5925C86.6433 18.0083 86.7577 18.482 86.7609 19.0138C86.7577 19.552 86.6433 20.0322 86.4177 20.4544C86.1921 20.8766 85.8794 21.207 85.4798 21.4454C85.0834 21.6807 84.6338 21.7983 84.1311 21.7983C83.6315 21.7983 83.1819 21.6807 82.7823 21.4454C82.3859 21.207 82.0749 20.8766 81.8493 20.4544C81.6269 20.0322 81.5173 19.552 81.5206 19.0138ZM82.4681 19.0138C82.4681 19.3715 82.539 19.6906 82.6808 19.971C82.8226 20.2514 83.0192 20.4705 83.2706 20.6285C83.5252 20.7864 83.812 20.8637 84.1311 20.8605C84.4501 20.8637 84.7369 20.7864 84.9916 20.6285C85.2462 20.4705 85.4444 20.2514 85.5862 19.971C85.7312 19.6874 85.8037 19.3683 85.8037 19.0138C85.8037 18.6625 85.7312 18.3467 85.5862 18.0663C85.4444 17.7859 85.2462 17.5651 84.9916 17.404C84.7369 17.2429 84.4501 17.1607 84.1311 17.1575C83.812 17.1607 83.5252 17.2429 83.2706 17.404C83.0192 17.5651 82.8226 17.7859 82.6808 18.0663C82.539 18.3467 82.4681 18.6625 82.4681 19.0138ZM87.8051 12.7486H88.8203V17.5829H90.4349V12.4586H91.4598V24.6119H90.4349V18.4724H88.8203V24.0124H87.8051V12.7486ZM103.933 23.0456H92.8044V22.1464H95.5599V18.8688C95.0346 18.5916 94.6253 18.2387 94.332 17.8101C94.042 17.3782 93.897 16.8932 93.897 16.355C93.897 15.7362 94.0855 15.1915 94.4626 14.721C94.8396 14.2472 95.365 13.8798 96.0385 13.6188C96.7121 13.3577 97.4775 13.2256 98.3348 13.2224C99.1953 13.2256 99.9623 13.3577 100.636 13.6188C101.313 13.8798 101.84 14.2472 102.217 14.721C102.594 15.1915 102.782 15.7362 102.782 16.355C102.782 16.8867 102.641 17.3653 102.357 17.7907C102.077 18.2129 101.68 18.5626 101.168 18.8398V22.1464H103.933V23.0456ZM94.9315 16.355C94.9315 16.7997 95.0749 17.1945 95.3617 17.5394C95.6518 17.881 96.0546 18.1469 96.5703 18.337C97.0892 18.5239 97.6773 18.6174 98.3348 18.6174C98.9923 18.6174 99.5788 18.5239 100.094 18.337C100.613 18.1469 101.018 17.881 101.308 17.5394C101.601 17.1945 101.748 16.7997 101.748 16.355C101.748 15.907 101.601 15.5122 101.308 15.1706C101.018 14.829 100.613 14.5647 100.094 14.3778C99.5788 14.1908 98.9923 14.099 98.3348 14.1022C97.6773 14.099 97.0892 14.1908 96.5703 14.3778C96.0546 14.5647 95.6518 14.829 95.3617 15.1706C95.0749 15.5122 94.9315 15.907 94.9315 16.355ZM100.085 22.1464V19.2604C99.5466 19.3989 98.9633 19.4682 98.3348 19.4682C97.7289 19.4682 97.1552 19.4006 96.6138 19.2652V22.1464H100.085ZM106.38 20.7058H105.229L105.132 13.5994H106.476L106.38 20.7058ZM104.929 22.6975C104.926 22.5396 104.963 22.393 105.041 22.2576C105.121 22.1222 105.229 22.0159 105.365 21.9385C105.503 21.858 105.651 21.8177 105.809 21.8177C105.967 21.8177 106.114 21.858 106.249 21.9385C106.385 22.0159 106.491 22.1222 106.568 22.2576C106.649 22.393 106.689 22.5396 106.689 22.6975C106.689 22.8554 106.649 23.0021 106.568 23.1374C106.491 23.2728 106.385 23.3808 106.249 23.4613C106.114 23.5387 105.967 23.5773 105.809 23.5773C105.651 23.5773 105.503 23.5387 105.365 23.4613C105.229 23.3808 105.121 23.2728 105.041 23.1374C104.963 23.0021 104.926 22.8554 104.929 22.6975Z" fill="white"/>
<path d="M64.4999 43L61 37H68L64.4999 43Z" fill="url(#paint1_linear_304_4128)"/>
<defs>
<linearGradient id="paint0_linear_304_4128" x1="127" y1="18.5" x2="0" y2="18.5" gradientUnits="userSpaceOnUse">
<stop stop-color="#3CADFF"/>
<stop offset="1" stop-color="#2695E8"/>
</linearGradient>
<linearGradient id="paint1_linear_304_4128" x1="68" y1="40" x2="61" y2="40" gradientUnits="userSpaceOnUse">
<stop stop-color="#3CADFF"/>
<stop offset="1" stop-color="#2695E8"/>
</linearGradient>
</defs>
</svg>
