<svg width="165" height="43" viewBox="0 0 165 43" fill="none" xmlns="http://www.w3.org/2000/svg">
<rect x="0.5" width="164" height="37" rx="12" fill="url(#paint0_linear_616_4912)"/>
<path d="M30.8729 17.3122V18.2113H28.9006V24.6022H27.8273V12.4586H28.9006V17.3122H30.8729ZM19.9959 21.518V13.6575H21.0594V20.6188C22.8384 20.614 24.6561 20.4738 26.6575 20.058L26.7928 20.9765C24.6948 21.3923 22.8094 21.518 20.9627 21.518H19.9959ZM41.0062 15.7845V16.6644H32.7107V12.6906H33.7742V15.7845H41.0062ZM31.1927 18.8494V17.9696H42.2825V18.8494H37.2355V20.3481H40.8709V24.4378H32.6236V20.3481H36.1817V18.8494H31.1927ZM33.6775 23.5677H39.8267V21.1989H33.6775V23.5677ZM52.0778 14.5566V15.4365H45.977V14.5566H48.5005V12.826H49.5737V14.5566H52.0778ZM46.4217 19.0138C46.4121 17.3992 47.5143 16.2583 49.0322 16.2583C50.5599 16.2583 51.6524 17.3992 51.6621 19.0138C51.6524 20.6478 50.5599 21.7983 49.0322 21.7983C47.5143 21.7983 46.4121 20.6478 46.4217 19.0138ZM47.3692 19.0138C47.3692 20.0967 48.0654 20.8702 49.0322 20.8605C49.9991 20.8702 50.7049 20.0967 50.7049 19.0138C50.7049 17.9503 49.9991 17.1671 49.0322 17.1575C48.0654 17.1671 47.3692 17.9503 47.3692 19.0138ZM52.7063 24.0124V12.7486H53.7215V17.5829H55.3361V12.4586H56.361V24.6119H55.3361V18.4724H53.7215V24.0124H52.7063ZM63.8451 14.1699C63.8354 15.8039 66.0012 17.1865 68.1282 17.4959L67.7222 18.3467C65.8271 18.0228 63.9805 17.0124 63.2408 15.5525C62.5012 17.0124 60.6497 18.0228 58.7788 18.3467L58.3631 17.4959C60.4708 17.1865 62.6365 15.8039 62.6462 14.1699V14.0925H58.7498V13.2224H67.7222V14.0925H63.8451V14.1699ZM57.7056 20.2707V19.3812H68.7857V20.2707H63.7484V24.6022H62.6945V20.2707H57.7056ZM79.4798 12.4586V24.6312H78.4066V19.0428H75.7091V18.1243H78.4066V16.0166H75.7091V15.1174H78.4066V12.4586H79.4798ZM69.3955 21.1796C71.1745 20.2997 72.5861 17.9599 72.5958 15.7265V13.5124H73.6787V15.7265C73.6787 17.9309 75.0903 20.1547 76.8596 20.9862L76.2118 21.8564C74.8244 21.1506 73.6835 19.6761 73.1421 17.9261C72.6055 19.739 71.4549 21.2907 70.082 22.0304L69.3955 21.1796ZM85.3783 15.7265C85.3783 17.9213 86.7899 20.1354 88.5592 20.9475L87.9114 21.8177C86.5288 21.107 85.388 19.6519 84.8465 17.9261C84.3099 19.7438 83.169 21.3004 81.7816 22.0401L81.0951 21.1796C82.8741 20.2997 84.2858 17.9599 84.2954 15.7265V13.5124H85.3783V15.7265ZM87.2346 17.4862V16.6064H90.1159V12.4586H91.1794V24.6312H90.1159V17.4862H87.2346ZM105.422 12.4586V15.4365H107.25V16.326H105.422V19.3619H104.349V12.4586H105.422ZM95.9084 18.6174C98.896 17.8101 100.714 16.1906 100.941 14.1409H96.4499V13.2514H102.096C102.087 16.3066 99.9402 18.5014 96.3435 19.4779L95.9084 18.6174ZM97.7164 24.4378V19.913H105.422V24.4378H97.7164ZM98.7896 23.5677H104.359V20.8122H98.7896V23.5677ZM111.698 15.7265C111.688 17.8633 113.109 20.0677 114.84 20.9185L114.173 21.779C112.839 21.078 111.722 19.6374 111.181 17.9503C110.639 19.7438 109.489 21.2762 108.12 22.011L107.444 21.1506C109.213 20.2707 110.625 17.9406 110.634 15.7265V13.5124H111.698V15.7265ZM115.952 24.6119V12.4586H117.025V17.3895H119.056V18.3177H117.025V24.6119H115.952ZM125.389 14.5566V15.4365H119.288V14.5566H121.812V12.826H122.885V14.5566H125.389ZM119.733 19.0138C119.723 17.3992 120.826 16.2583 122.344 16.2583C123.871 16.2583 124.964 17.3992 124.973 19.0138C124.964 20.6478 123.871 21.7983 122.344 21.7983C120.826 21.7983 119.723 20.6478 119.733 19.0138ZM120.681 19.0138C120.681 20.0967 121.377 20.8702 122.344 20.8605C123.31 20.8702 124.016 20.0967 124.016 19.0138C124.016 17.9503 123.31 17.1671 122.344 17.1575C121.377 17.1671 120.681 17.9503 120.681 19.0138ZM126.018 24.0124V12.7486H127.033V17.5829H128.647V12.4586H129.672V24.6119H128.647V18.4724H127.033V24.0124H126.018ZM142.145 22.1464V23.0456H131.017V22.1464H133.772V18.8688C132.738 18.3273 132.109 17.4523 132.109 16.355C132.109 14.4696 133.956 13.232 136.547 13.2224C139.148 13.232 140.995 14.4696 140.995 16.355C140.995 17.4378 140.386 18.2983 139.38 18.8398V22.1464H142.145ZM133.144 16.355C133.144 17.7086 134.556 18.6174 136.547 18.6174C138.529 18.6174 139.96 17.7086 139.96 16.355C139.96 14.9917 138.529 14.0925 136.547 14.1022C134.556 14.0925 133.144 14.9917 133.144 16.355ZM134.826 22.1464H138.297V19.2604C137.77 19.3957 137.181 19.4682 136.547 19.4682C135.924 19.4682 135.348 19.3957 134.826 19.2652V22.1464ZM144.689 13.5994L144.592 20.7058H143.442L143.345 13.5994H144.689ZM143.142 22.6975C143.132 22.2141 143.538 21.8177 144.022 21.8177C144.505 21.8177 144.902 22.2141 144.902 22.6975C144.902 23.1809 144.505 23.5773 144.022 23.5773C143.538 23.5773 143.132 23.1809 143.142 22.6975Z" fill="white"/>
<path d="M83.793 43L79.2734 37H88.3128L83.793 43Z" fill="url(#paint1_linear_616_4912)"/>
<defs>
<linearGradient id="paint0_linear_616_4912" x1="164.5" y1="18.5" x2="0.5" y2="18.5" gradientUnits="userSpaceOnUse">
<stop stop-color="#3CADFF"/>
<stop offset="1" stop-color="#2695E8"/>
</linearGradient>
<linearGradient id="paint1_linear_616_4912" x1="88.3128" y1="40" x2="79.2734" y2="40" gradientUnits="userSpaceOnUse">
<stop stop-color="#3CADFF"/>
<stop offset="1" stop-color="#2695E8"/>
</linearGradient>
</defs>
</svg>
