<svg width="24" height="24" viewBox="0 0 24 24" fill="none" xmlns="http://www.w3.org/2000/svg">
<mask id="path-1-inside-1_366_8219" fill="white">
<path d="M14 4C15.1046 4 16 4.89543 16 6H19C20.1046 6 21 6.89543 21 8V18C21 19.1046 20.1046 20 19 20H5C3.89543 20 3 19.1046 3 18V8C3 6.89543 3.89543 6 5 6H8C8 4.89543 8.89543 4 10 4H14Z"/>
</mask>
<path d="M16 6H14.6V7.4H16V6ZM21 8H22.4H21ZM19 20V21.4V20ZM3 18H1.6H3ZM5 6V4.6V6ZM8 6V7.4H9.4V6H8ZM14 4V5.4C14.3314 5.4 14.6 5.66863 14.6 6H16H17.4C17.4 4.12223 15.8778 2.6 14 2.6V4ZM16 6V7.4H19V6V4.6H16V6ZM19 6V7.4C19.3314 7.4 19.6 7.66863 19.6 8H21H22.4C22.4 6.12223 20.8778 4.6 19 4.6V6ZM21 8H19.6V18H21H22.4V8H21ZM21 18H19.6C19.6 18.3314 19.3314 18.6 19 18.6V20V21.4C20.8778 21.4 22.4 19.8778 22.4 18H21ZM19 20V18.6H5V20V21.4H19V20ZM5 20V18.6C4.66863 18.6 4.4 18.3314 4.4 18H3H1.6C1.6 19.8778 3.12223 21.4 5 21.4V20ZM3 18H4.4V8H3H1.6V18H3ZM3 8H4.4C4.4 7.66863 4.66863 7.4 5 7.4V6V4.6C3.12223 4.6 1.6 6.12223 1.6 8H3ZM5 6V7.4H8V6V4.6H5V6ZM8 6H9.4C9.4 5.66863 9.66863 5.4 10 5.4V4V2.6C8.12223 2.6 6.6 4.12223 6.6 6H8ZM10 4V5.4H14V4V2.6H10V4Z" fill="white" mask="url(#path-1-inside-1_366_8219)"/>
<circle cx="11" cy="13" r="3.3" stroke="white" stroke-width="1.4" stroke-linecap="round"/>
<circle cx="17" cy="10" r="1" fill="white"/>
</svg>
