<svg width="100" height="100" viewBox="0 0 100 100" fill="none" xmlns="http://www.w3.org/2000/svg">
<path d="M50.0013 49.9994C45.418 49.9994 41.4944 48.3674 38.2305 45.1035C34.9666 41.8396 33.3346 37.916 33.3346 33.3327C33.3346 28.7493 34.9666 24.8257 38.2305 21.5619C41.4944 18.298 45.418 16.666 50.0013 16.666C54.5846 16.666 58.5082 18.298 61.7721 21.5619C65.036 24.8257 66.668 28.7493 66.668 33.3327C66.668 37.916 65.036 41.8396 61.7721 45.1035C58.5082 48.3674 54.5846 49.9994 50.0013 49.9994ZM16.668 74.9994V71.666C16.668 69.3049 17.2763 67.1355 18.493 65.1577C19.7096 63.1799 21.3235 61.6688 23.3346 60.6244C27.6402 58.4716 32.0152 56.8577 36.4596 55.7827C40.9041 54.7077 45.418 54.1688 50.0013 54.166C54.5846 54.1632 59.0985 54.7021 63.543 55.7827C67.9874 56.8632 72.3624 58.4771 76.668 60.6244C78.6819 61.666 80.2971 63.1771 81.5138 65.1577C82.7305 67.1382 83.3374 69.3077 83.3346 71.666V74.9994C83.3346 77.291 82.5194 79.2535 80.8888 80.8869C79.2583 82.5202 77.2957 83.3355 75.0013 83.3327H25.0013C22.7096 83.3327 20.7485 82.5174 19.118 80.8869C17.4874 79.2563 16.6707 77.2938 16.668 74.9994Z" fill="#BCC3CE"/>
</svg>
