<svg width="20" height="20" viewBox="0 0 20 20" fill="none" xmlns="http://www.w3.org/2000/svg">
<mask id="path-1-inside-1_366_8690" fill="white">
<path fill-rule="evenodd" clip-rule="evenodd" d="M17.1976 7.26172C16.3914 2.42464 12.3788 1.43922 10.3753 1.33496L10.0032 1.32422C8.17638 1.32429 3.66872 2.10244 2.8089 7.26172C1.9461 12.4409 6.55786 16.0242 9.50815 18.2009C9.80279 18.4183 10.204 18.4165 10.4981 18.1983L11.18 17.6924C14.1032 15.483 17.9963 12.0563 17.1976 7.26172ZM10.0023 9.58203C10.6926 9.58203 11.2523 9.02239 11.2523 8.33203C11.2523 7.64168 10.6926 7.08203 10.0023 7.08203C9.31191 7.08203 8.75226 7.64168 8.75226 8.33203C8.75226 9.02239 9.31191 9.58203 10.0023 9.58203Z"/>
</mask>
<path d="M10.3753 1.33496L10.4481 -0.0631474L10.4319 -0.0639887L10.4157 -0.0644559L10.3753 1.33496ZM17.1976 7.26172L18.5785 7.03166L18.5785 7.03157L17.1976 7.26172ZM10.0032 1.32422L10.0436 -0.0751981L10.0234 -0.0757821L10.0032 -0.0757812L10.0032 1.32422ZM2.8089 7.26172L1.42795 7.03157L1.42793 7.03166L2.8089 7.26172ZM9.50815 18.2009L10.3393 17.0744H10.3393L9.50815 18.2009ZM10.4981 18.1983L9.6639 17.074L9.6639 17.074L10.4981 18.1983ZM11.18 17.6924L12.0142 18.8168L12.0242 18.8093L11.18 17.6924ZM10.3753 1.33496L10.3026 2.73307C11.1545 2.7774 12.3979 3.01186 13.4825 3.70381C14.5165 4.36347 15.4815 5.48101 15.8166 7.49186L17.1976 7.26172L18.5785 7.03157C18.1075 4.20535 16.6631 2.41164 14.9884 1.34326C13.3643 0.307161 11.5997 -0.00322187 10.4481 -0.0631474L10.3753 1.33496ZM10.0032 1.32422L9.96283 2.72364L10.3349 2.73438L10.3753 1.33496L10.4157 -0.0644559L10.0436 -0.0751981L10.0032 1.32422ZM2.8089 7.26172L4.18986 7.49186C4.54602 5.35472 5.61573 4.21789 6.74028 3.57252C7.92558 2.89229 9.24594 2.72425 10.0033 2.72422L10.0032 1.32422L10.0032 -0.0757812C8.93368 -0.075737 7.08678 0.145338 5.34659 1.14402C3.54563 2.17757 1.9316 4.00945 1.42795 7.03157L2.8089 7.26172ZM9.50815 18.2009L10.3393 17.0744C8.86056 15.9833 7.1155 14.6434 5.83313 12.997C4.57086 11.3763 3.84324 9.57253 4.18987 7.49178L2.8089 7.26172L1.42793 7.03166C0.911764 10.1301 2.05862 12.7075 3.6241 14.7175C5.16949 16.7017 7.20545 18.2418 8.67697 19.3275L9.50815 18.2009ZM10.4981 18.1983L9.6639 17.074C9.86066 16.928 10.1353 16.9238 10.3393 17.0744L9.50815 18.2009L8.67697 19.3275C9.47032 19.9128 10.5474 19.905 11.3322 19.3227L10.4981 18.1983ZM11.18 17.6924L10.3458 16.568L9.6639 17.074L10.4981 18.1983L11.3322 19.3227L12.0142 18.8167L11.18 17.6924ZM17.1976 7.26172L15.8166 7.49178C16.1381 9.42191 15.5361 11.1076 14.4458 12.6321C13.3364 14.1832 11.7756 15.4873 10.3358 16.5755L11.18 17.6924L12.0242 18.8093C13.5076 17.6881 15.3549 16.1741 16.7232 14.2609C18.1106 12.3211 19.0557 9.89609 18.5785 7.03166L17.1976 7.26172ZM11.2523 8.33203H9.85226C9.85226 8.24919 9.91942 8.18203 10.0023 8.18203V9.58203V10.982C11.4658 10.982 12.6523 9.79559 12.6523 8.33203H11.2523ZM10.0023 7.08203V8.48203C9.91942 8.48203 9.85226 8.41487 9.85226 8.33203H11.2523H12.6523C12.6523 6.86848 11.4658 5.68203 10.0023 5.68203V7.08203ZM8.75226 8.33203H10.1523C10.1523 8.41487 10.0851 8.48203 10.0023 8.48203V7.08203V5.68203C8.53871 5.68203 7.35226 6.86848 7.35226 8.33203H8.75226ZM10.0023 9.58203V8.18203C10.0851 8.18203 10.1523 8.24919 10.1523 8.33203H8.75226H7.35226C7.35226 9.79559 8.53871 10.982 10.0023 10.982V9.58203Z" fill="#47484B" mask="url(#path-1-inside-1_366_8690)"/>
</svg>
