<svg width="41" height="40" viewBox="0 0 41 40" fill="none" xmlns="http://www.w3.org/2000/svg">
<mask id="mask0_739_8634" style="mask-type:luminance" maskUnits="userSpaceOnUse" x="1" y="1" width="39" height="38">
<path d="M20.5026 36.6654C22.6917 36.6681 24.8598 36.2382 26.8822 35.4004C28.9047 34.5627 30.7416 33.3336 32.2876 31.7837C33.8375 30.2377 35.0666 28.4008 35.9044 26.3783C36.7421 24.3559 37.172 22.1878 37.1693 19.9987C37.172 17.8096 36.7421 15.6416 35.9044 13.6191C35.0666 11.5967 33.8375 9.75969 32.2876 8.21371C30.7416 6.66384 28.9047 5.43473 26.8822 4.59697C24.8598 3.75922 22.6917 3.32934 20.5026 3.33204C18.3135 3.32934 16.1455 3.75922 14.123 4.59697C12.1006 5.43473 10.2636 6.66384 8.71762 8.21371C7.16775 9.75969 5.93863 11.5967 5.10088 13.6191C4.26313 15.6416 3.83325 17.8096 3.83595 19.9987C3.83325 22.1878 4.26313 24.3559 5.10088 26.3783C5.93863 28.4008 7.16775 30.2377 8.71762 31.7837C10.2636 33.3336 12.1006 34.5627 14.123 35.4004C16.1455 36.2382 18.3135 36.6681 20.5026 36.6654Z" fill="white" stroke="white" stroke-width="4" stroke-linejoin="round"/>
<path d="M13.8359 20L18.8359 25L28.8359 15" stroke="black" stroke-width="4" stroke-linecap="round" stroke-linejoin="round"/>
</mask>
<g mask="url(#mask0_739_8634)">
<path d="M0.5 0H40.5V40H0.5V0Z" fill="#34D12B"/>
</g>
</svg>
