<svg width="24" height="24" viewBox="0 0 24 24" fill="none" xmlns="http://www.w3.org/2000/svg">
<path d="M5.99 8.97C5.99 8.226 6.362 7.48 6.92 6.921L6.927 6.915C7.487 6.357 8.233 5.985 8.979 5.985C8.233 5.985 7.487 5.614 6.927 5.055L6.921 5.049C6.36 4.49 5.99 3.745 5.99 3C5.99 3.745 5.617 4.49 5.058 5.05L5.052 5.056C4.492 5.614 3.746 5.986 3 5.986C3.746 5.986 4.492 6.357 5.052 6.916L5.058 6.921C5.618 7.481 5.99 8.225 5.99 8.97ZM14.46 8.97C14.46 8.226 14.832 7.48 15.391 6.921L15.398 6.915C15.958 6.357 16.704 5.985 17.45 5.985C16.704 5.985 15.958 5.614 15.398 5.055L15.391 5.049C14.832 4.49 14.461 3.745 14.461 3C14.461 3.745 14.088 4.49 13.529 5.05L13.523 5.056C12.963 5.614 12.217 5.986 11.471 5.986C12.217 5.986 12.963 6.357 13.523 6.916L13.529 6.921C14.088 7.481 14.46 8.225 14.46 8.97ZM6.92 15.878C6.362 16.437 5.99 17.182 5.99 17.927C5.99 17.182 5.617 16.437 5.058 15.877L5.052 15.871C4.492 15.313 3.746 14.941 3 14.941C3.746 14.941 4.492 14.57 5.052 14.011L5.058 14.006C5.618 13.446 5.99 12.701 5.99 11.956C5.99 12.701 6.362 13.446 6.92 14.006L6.927 14.012C7.487 14.57 8.233 14.942 8.979 14.942C8.233 14.942 7.487 15.313 6.927 15.872L6.92 15.878Z" fill="#3CADFF"/>
<path fill-rule="evenodd" clip-rule="evenodd" d="M8.30554 11.8395C8.1901 11.7241 8.09852 11.587 8.03604 11.4362C7.97356 11.2854 7.94141 11.1238 7.94141 10.9605C7.94141 10.7973 7.97356 10.6356 8.03604 10.4848C8.09852 10.334 8.1901 10.1969 8.30554 10.0815L10.0675 8.32151C10.3013 8.08811 10.6182 7.95703 10.9485 7.95703C11.2789 7.95703 11.5957 8.08811 11.8295 8.32151L20.6365 17.1165C20.7523 17.232 20.8441 17.3691 20.9068 17.5201C20.9694 17.6711 21.0017 17.833 21.0017 17.9965C21.0017 18.16 20.9694 18.3219 20.9068 18.4729C20.8441 18.6239 20.7523 18.761 20.6365 18.8765L18.8745 20.6355C18.6408 20.8686 18.3241 20.9995 17.994 20.9995C17.6639 20.9995 17.3473 20.8686 17.1135 20.6355L8.30554 11.8395ZM12.2495 13.6675L17.9945 19.4035L19.4035 17.9965L13.6585 12.2605L12.2495 13.6675ZM11.1925 12.6115L12.6025 11.2045L10.9485 9.55351L9.53854 10.9605L11.1925 12.6115Z" fill="#3CADFF"/>
</svg>
