<svg width="21" height="20" viewBox="0 0 21 20" fill="none" xmlns="http://www.w3.org/2000/svg">
<path d="M10.5013 1.66602C15.1038 1.66602 18.8346 5.39685 18.8346 9.99935C18.8346 14.6018 15.1038 18.3327 10.5013 18.3327C5.8988 18.3327 2.16797 14.6018 2.16797 9.99935C2.16797 5.39685 5.8988 1.66602 10.5013 1.66602ZM10.5013 3.33268C8.73319 3.33268 7.0375 4.03506 5.78726 5.2853C4.53701 6.53555 3.83464 8.23124 3.83464 9.99935C3.83464 11.7675 4.53701 13.4632 5.78726 14.7134C7.0375 15.9636 8.73319 16.666 10.5013 16.666C12.2694 16.666 13.9651 15.9636 15.2153 14.7134C16.4656 13.4632 17.168 11.7675 17.168 9.99935C17.168 8.23124 16.4656 6.53555 15.2153 5.2853C13.9651 4.03506 12.2694 3.33268 10.5013 3.33268ZM10.5013 13.3327C10.7223 13.3327 10.9343 13.4205 11.0906 13.5768C11.2468 13.733 11.3346 13.945 11.3346 14.166C11.3346 14.387 11.2468 14.599 11.0906 14.7553C10.9343 14.9116 10.7223 14.9993 10.5013 14.9993C10.2803 14.9993 10.0683 14.9116 9.91205 14.7553C9.75577 14.599 9.66797 14.387 9.66797 14.166C9.66797 13.945 9.75577 13.733 9.91205 13.5768C10.0683 13.4205 10.2803 13.3327 10.5013 13.3327ZM10.5013 5.41602C11.2032 5.41604 11.8832 5.66048 12.4245 6.10735C12.9657 6.55422 13.3345 7.17563 13.4674 7.86483C13.6003 8.55403 13.4891 9.268 13.1528 9.88411C12.8165 10.5002 12.2762 10.98 11.6246 11.241C11.5281 11.2765 11.4411 11.3338 11.3705 11.4085C11.3338 11.4502 11.328 11.5035 11.3288 11.5585L11.3346 11.666C11.3344 11.8784 11.2531 12.0827 11.1073 12.2372C10.9615 12.3916 10.7622 12.4845 10.5501 12.497C10.3381 12.5094 10.1293 12.4405 9.96644 12.3041C9.80356 12.1678 9.69889 11.9744 9.6738 11.7635L9.66797 11.666V11.4577C9.66797 10.4968 10.443 9.92018 11.0046 9.69435C11.2332 9.60307 11.4326 9.45124 11.5815 9.25517C11.7303 9.0591 11.8229 8.8262 11.8493 8.58148C11.8757 8.33676 11.835 8.08945 11.7315 7.86613C11.628 7.64281 11.4656 7.4519 11.2618 7.31391C11.0579 7.17592 10.8204 7.09606 10.5746 7.08291C10.3288 7.06975 10.084 7.1238 9.86663 7.23924C9.64923 7.35469 9.46739 7.52717 9.34063 7.73816C9.21387 7.94916 9.14698 8.1907 9.14714 8.43685C9.14714 8.65786 9.05934 8.86982 8.90306 9.0261C8.74678 9.18238 8.53482 9.27018 8.3138 9.27018C8.09279 9.27018 7.88083 9.18238 7.72455 9.0261C7.56827 8.86982 7.48047 8.65786 7.48047 8.43685C7.48047 7.63567 7.79873 6.86731 8.36525 6.3008C8.93177 5.73428 9.70013 5.41602 10.5013 5.41602Z" fill="#BCC3CE"/>
</svg>
