<svg width="277" height="110" viewBox="0 0 277 110" fill="none" xmlns="http://www.w3.org/2000/svg">
<g filter="url(#filter0_d_739_8365)">
<rect x="12" y="20" width="253" height="76" rx="8" fill="#2F3032" shape-rendering="crispEdges"/>
<path d="M37.2461 34.4258V42.207H35.7461V34.4258H37.2461ZM37.5273 43.6953V44.8906H30.0977V41.457H31.6094V43.6953H37.5273ZM32.4062 36.043C32.3945 37.4492 33.1445 38.832 34.9023 39.3945L34.1406 40.5664C32.9395 40.168 32.1074 39.3711 31.6328 38.3516C31.1582 39.4473 30.3027 40.3262 29.0547 40.7539L28.2812 39.5703C30.0742 38.9727 30.8477 37.4844 30.8477 36.043V35.0117H32.4062V36.043ZM42.2836 36.2422C42.2836 37.625 43.0219 38.9961 44.7211 39.5586L43.9125 40.7305C42.7816 40.3145 42.0023 39.5293 41.557 38.5391C41.0941 39.6523 40.2621 40.5312 39.0258 40.9766L38.2172 39.8047C39.9984 39.2188 40.7719 37.7539 40.7719 36.2305V35.0703H42.2836V36.2422ZM47.2758 34.4258V42.3008H45.7875V37.8945H43.7836V36.6875H45.7875V34.4258H47.2758ZM47.4984 43.6953V44.8906H40.1742V41.4688H41.6859V43.6953H47.4984ZM57.4813 34.4141V45.0781H56.0633V34.4141H57.4813ZM55.3016 34.5898V44.5859H53.8953V39.2773H52.4891V38.0703H53.8953V34.5898H55.3016ZM51.6336 37.2734C51.6336 39.043 52.1844 40.8359 53.743 41.7266L52.8641 42.8281C51.9148 42.2656 51.2879 41.3105 50.9305 40.168C50.5613 41.4102 49.9168 42.4648 48.9383 43.0625L48.0359 41.9609C49.6063 41 50.1922 39.0781 50.1922 37.2734V36.6992H48.4461V35.5039H53.2508V36.6992H51.6336V37.2734ZM67.9562 39.4062V40.5898H63.8312V41.5039H66.7961V44.9609H59.3547V41.5039H62.343V40.5898H58.2297V39.4062H67.9562ZM67.0891 34.707V35.9023H65.6945V37.5312H67.0187V38.7266H59.1555V37.5312H60.468V35.9023H59.0852V34.707H67.0891ZM60.8312 42.6641V43.7656H65.3312V42.6641H60.8312ZM61.968 37.5312H64.1945V35.9023H61.968V37.5312ZM79.4961 34.4258V42.0898H77.9961V34.4258H79.4961ZM79.7773 43.6953V44.8906H72.3477V41.3164H73.8594V43.6953H79.7773ZM73.6484 35.1055C75.2891 35.1055 76.5664 36.2305 76.5664 37.7891C76.5664 39.3828 75.2891 40.4961 73.6484 40.4961C72.0078 40.4961 70.7305 39.3828 70.7305 37.7891C70.7305 36.2305 72.0078 35.1055 73.6484 35.1055ZM73.6484 36.4062C72.8164 36.3945 72.1836 36.9219 72.1953 37.7891C72.1836 38.6797 72.8164 39.1953 73.6484 39.1953C74.457 39.1953 75.0898 38.6797 75.0898 37.7891C75.0898 36.9219 74.457 36.3945 73.6484 36.4062ZM90.2641 39.3242V40.5312H80.5375V39.3242H90.2641ZM85.3891 41.1289C87.6977 41.1289 89.0922 41.8555 89.1039 43.1094C89.0922 44.375 87.6977 45.0781 85.3891 45.0781C83.057 45.0781 81.6508 44.375 81.6508 43.1094C81.6508 41.8555 83.057 41.1289 85.3891 41.1289ZM85.3891 42.2891C83.9125 42.2891 83.1625 42.5469 83.1742 43.1094C83.1625 43.6602 83.9125 43.918 85.3891 43.918C86.8305 43.918 87.5922 43.6602 87.6039 43.1094C87.5922 42.5469 86.8305 42.2891 85.3891 42.2891ZM89.3852 34.9062V36.1016H86.4789C86.7191 36.8457 87.8031 37.584 89.8539 37.7656L89.3266 38.9375C87.3168 38.7441 85.9574 37.9824 85.3891 36.9453C84.8266 37.9824 83.4906 38.7441 81.4633 38.9375L80.9711 37.7656C82.975 37.584 84.0707 36.8516 84.3227 36.1016H81.4281V34.9062H89.3852ZM98.9227 34.4141V38.5859H100.493V39.8164H98.9227V45.0781H97.4461V34.4141H98.9227ZM96.7195 36.0078V37.2031H90.45V36.0078H92.8641V34.5781H94.3641V36.0078H96.7195ZM93.6141 37.8008C95.1727 37.8008 96.3328 38.8555 96.3328 40.3438C96.3328 41.832 95.1727 42.8867 93.6141 42.8867C92.0438 42.8867 90.8836 41.832 90.8836 40.3438C90.8836 38.8555 92.0438 37.8008 93.6141 37.8008ZM93.6141 39.0078C92.8641 39.0195 92.3133 39.5234 92.3133 40.3438C92.3133 41.1758 92.8641 41.668 93.6141 41.6562C94.3641 41.668 94.9031 41.1758 94.9031 40.3438C94.9031 39.5234 94.3641 39.0195 93.6141 39.0078ZM109.445 34.4141V45.0781H107.933V34.4141H109.445ZM106.245 35.5273C106.245 38.7617 105.109 41.4453 101.3 43.25L100.515 42.0547C103.269 40.7539 104.482 39.0664 104.722 36.6992H101.089V35.5273H106.245Z" fill="#F5F7FA"/>
<path d="M239.605 36.6035L246.897 43.8952" stroke="white" stroke-width="1.25" stroke-linecap="round" stroke-linejoin="bevel"/>
<path d="M246.895 36.6035L239.603 43.8952" stroke="white" stroke-width="1.25" stroke-linecap="round" stroke-linejoin="bevel"/>
<path d="M29.5938 64H28.2227L31.2695 55.5156H32.7578L35.8164 64H34.4453L33.6719 61.7617H30.3672L29.5938 64ZM30.7422 60.6836H33.2969L32.043 57.0625H31.9844L30.7422 60.6836ZM37.7836 55.5156V64H36.4945V55.5156H37.7836ZM48.2234 59.3125V60.168H38.6141V59.3125H48.2234ZM47.0398 60.9062V63.2148H40.8758V64.082H47.368V64.8672H39.7625V62.4766H45.9383V61.7031H39.7508V60.9062H47.0398ZM47.0164 54.7656V57.0391H40.9461V57.8359H47.1922V58.6211H39.8445V56.3008H45.9031V55.5508H39.8211V54.7656H47.0164ZM60.7008 60.0156V60.8945H51.1031V60.0156H55.3453V59.1016H52.357V54.7773H59.5289V55.6562H53.482V56.5117H59.2594V57.3438H53.482V58.2344H59.5992V59.1016H56.4586V60.0156H60.7008ZM55.9078 61.5859C58.2164 61.5742 59.5289 62.1836 59.5289 63.2852C59.5289 64.3984 58.2164 64.9844 55.9078 64.9727C53.5758 64.9844 52.2633 64.3984 52.2633 63.2852C52.2633 62.1836 53.5758 61.5742 55.9078 61.5859ZM55.9078 62.418C54.2555 62.418 53.3648 62.7227 53.3766 63.2852C53.3648 63.8477 54.2555 64.1406 55.9078 64.1289C57.5367 64.1406 58.4156 63.8477 58.4156 63.2852C58.4156 62.7227 57.5367 62.418 55.9078 62.418ZM66.2891 56.2305V57.1328H61.0742V56.2305H63.1367V54.8008H64.2383V56.2305H66.2891ZM63.6875 57.7656C65.0234 57.7656 65.9609 58.7617 65.9727 60.1797C65.9609 61.6094 65.0234 62.6172 63.6875 62.6172C62.375 62.6172 61.4023 61.6094 61.4141 60.1797C61.4023 58.7617 62.375 57.7656 63.6875 57.7656ZM63.6875 58.6914C62.9258 58.6914 62.3984 59.3125 62.3984 60.1797C62.3984 61.0703 62.9258 61.668 63.6875 61.668C64.4375 61.668 64.9883 61.0703 64.9883 60.1797C64.9883 59.3125 64.4375 58.6914 63.6875 58.6914ZM70.0859 54.4961V64.9961H69.0312V59.7812H67.8242V64.5039H66.7695V54.7305H67.8242V58.8672H69.0312V54.4961H70.0859ZM82.3055 54.5078V62.1953H81.1922V54.5078H82.3055ZM82.6219 63.8711V64.7734H75.4383V61.4688H76.5633V63.8711H82.6219ZM77.4188 56.125C77.407 57.6602 78.3914 59.0664 80.0086 59.6289L79.4344 60.5195C78.2215 60.0684 77.325 59.1777 76.8563 58.0352C76.3934 59.2539 75.4852 60.2324 74.2547 60.707L73.657 59.8281C75.3094 59.2188 76.282 57.707 76.282 56.125V55.082H77.4188V56.125ZM87.2727 56.418C87.2727 57.8359 88.2219 59.2188 89.8039 59.7695L89.1945 60.6367C88.0461 60.1973 87.1906 59.3301 86.7453 58.2344C86.2883 59.4531 85.3918 60.4141 84.1555 60.8828L83.5578 60.0039C85.1867 59.418 86.1594 57.9648 86.1711 56.3828V55.1406H87.2727V56.418ZM92.3234 54.5078V62.3359H91.2102V57.8125H88.9953V56.8984H91.2102V54.5078H92.3234ZM92.5578 63.8711V64.7734H85.468V61.457H86.593V63.8711H92.5578ZM102.552 54.4961V64.9961H101.486V54.4961H102.552ZM100.42 54.7188V64.4688H99.3648V59.125H97.7359V58.2109H99.3648V54.7188H100.42ZM96.7047 57.4258C96.7047 59.2188 97.4313 61.0117 98.9078 61.8672L98.2398 62.6875C97.2379 62.0898 96.5465 61.0293 96.1891 59.7578C95.8082 61.1289 95.0934 62.2949 94.068 62.9336L93.3883 62.1016C94.8766 61.1992 95.6383 59.2891 95.6383 57.4258V56.582H93.7047V55.6797H98.5094V56.582H96.7047V57.4258ZM113.086 59.5234V60.4141H108.844V61.5391H111.914V64.8672H104.66V61.5391H107.742V60.4141H103.512V59.5234H113.086ZM112.184 54.8242V55.7266H110.66V57.7305H112.137V58.6328H104.438V57.7305H105.926V55.7266H104.391V54.8242H112.184ZM105.762 62.418V63.9648H110.836V62.418H105.762ZM107.027 57.7305H109.547V55.7266H107.027V57.7305ZM118.264 54.6719C120.631 54.6719 122.014 55.3047 122.014 56.4766C122.014 57.6484 120.631 58.293 118.264 58.293C115.897 58.293 114.514 57.6484 114.514 56.4766C114.514 55.3047 115.897 54.6719 118.264 54.6719ZM118.264 55.4922C116.588 55.4922 115.662 55.8555 115.674 56.4766C115.662 57.1211 116.588 57.4609 118.264 57.4609C119.94 57.4609 120.866 57.1211 120.866 56.4766C120.866 55.8555 119.94 55.4922 118.264 55.4922ZM123.057 58.9375V59.8281H113.483V58.9375H123.057ZM121.85 60.6367V63.0977H115.733V64.0352H122.143V64.8906H114.643V62.2891H120.748V61.4688H114.631V60.6367H121.85ZM134.691 54.5078V62.1367H133.577V54.5078H134.691ZM135.007 63.8711V64.7734H127.823V61.3633H128.948V63.8711H135.007ZM128.995 55.2109C130.577 55.2109 131.784 56.2891 131.784 57.8125C131.784 59.3594 130.577 60.4258 128.995 60.4258C127.413 60.4258 126.195 59.3594 126.195 57.8125C126.195 56.2891 127.413 55.2109 128.995 55.2109ZM128.995 56.1836C128.011 56.1836 127.284 56.8516 127.284 57.8125C127.284 58.7969 128.011 59.4531 128.995 59.4531C129.956 59.4531 130.695 58.7969 130.695 57.8125C130.695 56.8516 129.956 56.1836 128.995 56.1836ZM145.529 59.4414V60.3438H135.955V59.4414H145.529ZM140.736 61.1523C142.998 61.1523 144.357 61.8555 144.357 63.0742C144.357 64.293 142.998 64.9844 140.736 64.9727C138.463 64.9844 137.091 64.293 137.091 63.0742C137.091 61.8555 138.463 61.1523 140.736 61.1523ZM140.736 62.0195C139.13 62.0312 138.216 62.3945 138.216 63.0742C138.216 63.7422 139.13 64.0938 140.736 64.0938C142.318 64.0938 143.244 63.7422 143.244 63.0742C143.244 62.3945 142.318 62.0312 140.736 62.0195ZM144.673 55.0117V55.9258H141.486C141.609 56.9453 143.097 57.8125 145.037 58.0117L144.638 58.8906C142.822 58.6797 141.316 57.9121 140.748 56.8047C140.162 57.9121 138.662 58.6797 136.845 58.8906L136.459 58.0117C138.363 57.8125 139.863 56.9512 139.998 55.9258H136.834V55.0117H144.673ZM151.117 56.2305V57.1328H145.902V56.2305H147.965V54.8008H149.066V56.2305H151.117ZM148.516 57.7656C149.852 57.7656 150.789 58.7617 150.801 60.1797C150.789 61.6094 149.852 62.6172 148.516 62.6172C147.203 62.6172 146.23 61.6094 146.242 60.1797C146.23 58.7617 147.203 57.7656 148.516 57.7656ZM148.516 58.6914C147.754 58.6914 147.227 59.3125 147.227 60.1797C147.227 61.0703 147.754 61.668 148.516 61.668C149.266 61.668 149.816 61.0703 149.816 60.1797C149.816 59.3125 149.266 58.6914 148.516 58.6914ZM154.914 54.4961V64.9961H153.859V59.7812H152.652V64.5039H151.598V54.7305H152.652V58.8672H153.859V54.4961H154.914ZM165.506 62.7695V63.6953H155.897V62.7695H160.127V60.6133H156.998V55.2109H158.112V57.0156H163.268V55.2109H164.37V60.6133H161.229V62.7695H165.506ZM158.112 59.7109H163.268V57.918H158.112V59.7109ZM169.067 57.3672C169.067 59.043 169.77 60.8359 171.177 61.6914L170.555 62.5469C169.571 61.9551 168.903 60.9062 168.552 59.6875C168.159 61.0234 167.438 62.1602 166.419 62.7812L165.727 61.9492C167.216 61.0586 167.989 59.207 167.989 57.4141V55.457H169.067V57.3672ZM174.903 54.4961V64.9961H173.837V54.4961H174.903ZM172.723 54.6953V64.4805H171.669V59.1133H170.04V58.1875H171.669V54.6953H172.723ZM185.448 62.7578V63.6836H175.839V62.7578H178.136V60.0156C177.275 59.541 176.753 58.7852 176.753 57.8477C176.753 56.1953 178.37 55.1055 180.62 55.1055C182.882 55.1055 184.499 56.1953 184.499 57.8477C184.499 58.7734 183.995 59.5176 183.152 59.9922V62.7578H185.448ZM180.62 55.9961C178.968 55.9961 177.831 56.7109 177.831 57.8477C177.831 58.9727 178.968 59.7109 180.62 59.7109C182.261 59.7109 183.421 58.9727 183.421 57.8477C183.421 56.7109 182.261 55.9961 180.62 55.9961ZM179.238 62.7578H182.027V60.4141C181.599 60.5254 181.124 60.5781 180.62 60.5781C180.128 60.5781 179.659 60.5254 179.238 60.4258V62.7578ZM187.744 55.5156L187.638 61.5508H186.478L186.373 55.5156H187.744ZM187.064 64.082C186.607 64.082 186.22 63.707 186.232 63.25C186.22 62.793 186.607 62.418 187.064 62.418C187.509 62.418 187.896 62.793 187.896 63.25C187.896 63.707 187.509 64.082 187.064 64.082ZM37.0938 70.5078V78.1367H35.9805V70.5078H37.0938ZM37.4102 79.8711V80.7734H30.2266V77.3633H31.3516V79.8711H37.4102ZM31.3984 71.2109C32.9805 71.2109 34.1875 72.2891 34.1875 73.8125C34.1875 75.3594 32.9805 76.4258 31.3984 76.4258C29.8164 76.4258 28.5977 75.3594 28.5977 73.8125C28.5977 72.2891 29.8164 71.2109 31.3984 71.2109ZM31.3984 72.1836C30.4141 72.1836 29.6875 72.8516 29.6875 73.8125C29.6875 74.7969 30.4141 75.4531 31.3984 75.4531C32.3594 75.4531 33.0977 74.7969 33.0977 73.8125C33.0977 72.8516 32.3594 72.1836 31.3984 72.1836ZM47.932 75.4414V76.3438H38.3578V75.4414H47.932ZM43.1391 77.1523C45.4008 77.1523 46.7602 77.8555 46.7602 79.0742C46.7602 80.293 45.4008 80.9844 43.1391 80.9727C40.8656 80.9844 39.4945 80.293 39.4945 79.0742C39.4945 77.8555 40.8656 77.1523 43.1391 77.1523ZM43.1391 78.0195C41.5336 78.0312 40.6195 78.3945 40.6195 79.0742C40.6195 79.7422 41.5336 80.0938 43.1391 80.0938C44.7211 80.0938 45.6469 79.7422 45.6469 79.0742C45.6469 78.3945 44.7211 78.0312 43.1391 78.0195ZM47.0766 71.0117V71.9258H43.8891C44.0121 72.9453 45.5004 73.8125 47.4398 74.0117L47.0414 74.8906C45.225 74.6797 43.7191 73.9121 43.1508 72.8047C42.5648 73.9121 41.0648 74.6797 39.2484 74.8906L38.8617 74.0117C40.766 73.8125 42.266 72.9512 42.4008 71.9258H39.2367V71.0117H47.0766ZM54.4461 73.8594V74.7617H52.3953V76.0859C53.327 76.0449 54.2527 75.9805 55.1141 75.8867L55.1961 76.707C52.9578 77.0117 50.4969 77.0703 48.5281 77.0703L48.3758 76.1797C49.2723 76.1738 50.2742 76.1621 51.2938 76.1328V74.7617H49.3133V71.1641H54.3523V72.0664H50.4266V73.8594H54.4461ZM57.0359 70.4961V78.3711H55.9227V70.4961H57.0359ZM57.3641 79.8711V80.7734H50.1102V77.8086H51.2234V79.8711H57.3641ZM64.4508 72.1719C64.4508 73.5547 65.4117 74.832 66.982 75.3477L66.3844 76.2266C65.2359 75.8223 64.3746 75.002 63.9234 73.9648C63.4605 75.1426 62.5699 76.0625 61.3453 76.5195L60.7477 75.6289C62.3883 75.043 63.3375 73.6484 63.3492 72.0781V71.0469H64.4508V72.1719ZM69.0797 70.4961V73.1328H70.6031V74.0703H69.0797V76.8359H67.9664V70.4961H69.0797ZM65.693 77.082C67.8492 77.082 69.1734 77.7969 69.1734 79.0273C69.1734 80.2695 67.8492 80.9844 65.693 80.9727C63.5133 80.9844 62.1656 80.2695 62.1656 79.0273C62.1656 77.7969 63.5133 77.082 65.693 77.082ZM65.693 77.9609C64.1695 77.9609 63.2672 78.3594 63.2789 79.0273C63.2672 79.7188 64.1695 80.0938 65.693 80.1055C67.2047 80.0938 68.0836 79.7188 68.0836 79.0273C68.0836 78.3594 67.2047 77.9609 65.693 77.9609ZM80.375 75.5234V76.4141H76.1328V77.5391H79.2031V80.8672H71.9492V77.5391H75.0312V76.4141H70.8008V75.5234H80.375ZM79.4727 70.8242V71.7266H77.9492V73.7305H79.4258V74.6328H71.7266V73.7305H73.2148V71.7266H71.6797V70.8242H79.4727ZM73.0508 78.418V79.9648H78.125V78.418H73.0508ZM74.3164 73.7305H76.8359V71.7266H74.3164V73.7305ZM90.3461 75.9805V76.8711H80.7719V75.9805H90.3461ZM89.268 79.8711V80.7734H81.9789V77.7266H83.1039V79.8711H89.268ZM85.5531 70.8477C87.8266 70.8359 89.3031 71.6328 89.3031 72.9453C89.3031 74.2695 87.8266 75.0664 85.5531 75.0781C83.268 75.0664 81.8031 74.2695 81.8031 72.9453C81.8031 71.6328 83.268 70.8359 85.5531 70.8477ZM85.5531 71.7383C83.9477 71.7383 82.9398 72.1953 82.9516 72.9453C82.9398 73.7188 83.9477 74.1641 85.5531 74.1641C87.1586 74.1641 88.1547 73.7188 88.1547 72.9453C88.1547 72.1953 87.1586 71.7383 85.5531 71.7383ZM101.98 70.5078V78.1953H100.866V70.5078H101.98ZM102.296 79.8711V80.7734H95.1125V77.4688H96.2375V79.8711H102.296ZM97.093 72.125C97.0813 73.6602 98.0656 75.0664 99.6828 75.6289L99.1086 76.5195C97.8957 76.0684 96.9992 75.1777 96.5305 74.0352C96.0676 75.2539 95.1594 76.2324 93.9289 76.707L93.3313 75.8281C94.9836 75.2188 95.9563 73.707 95.9563 72.125V71.082H97.093V72.125ZM106.947 72.418C106.947 73.8359 107.896 75.2188 109.478 75.7695L108.869 76.6367C107.72 76.1973 106.865 75.3301 106.42 74.2344C105.963 75.4531 105.066 76.4141 103.83 76.8828L103.232 76.0039C104.861 75.418 105.834 73.9648 105.845 72.3828V71.1406H106.947V72.418ZM111.998 70.5078V78.3359H110.884V73.8125H108.67V72.8984H110.884V70.5078H111.998ZM112.232 79.8711V80.7734H105.142V77.457H106.267V79.8711H112.232ZM121.723 75.3359V76.2266H118.547V78.793H122.824V79.707H113.215V78.793H117.445V76.2266H114.41V71.3047H121.629V72.207H115.523V75.3359H121.723ZM135.325 78.7695V79.6953H125.716V78.7695H129.946V76.6133H126.817V71.2109H127.93V73.0156H133.087V71.2109H134.188V76.6133H131.048V78.7695H135.325ZM127.93 75.7109H133.087V73.918H127.93V75.7109ZM139.355 72.4297C139.355 73.7656 140.28 74.9844 141.874 75.4883L141.347 76.3555C140.152 75.9746 139.279 75.1836 138.816 74.1875C138.359 75.3359 137.439 76.2441 136.179 76.6836L135.605 75.793C137.245 75.2539 138.23 73.8945 138.241 72.4414V72.1484H135.933V71.2461H141.616V72.1484H139.355V72.4297ZM143.937 70.4961V73.0977H145.46V74.0117H143.937V76.8008H142.823V70.4961H143.937ZM140.55 77.0586C142.718 77.0586 144.03 77.7734 144.03 79.0039C144.03 80.2461 142.718 80.9844 140.55 80.9727C138.359 80.9844 137.023 80.2461 137.023 79.0039C137.023 77.7734 138.359 77.0586 140.55 77.0586ZM140.55 77.9375C139.027 77.9375 138.124 78.3242 138.136 79.0039C138.124 79.707 139.027 80.0938 140.55 80.0938C142.062 80.0938 142.941 79.707 142.941 79.0039C142.941 78.3242 142.062 77.9375 140.55 77.9375ZM156.637 70.4961V73.25H157.961V74.1875H156.637V76.7773H155.523V70.4961H156.637ZM156.637 77.2461V81.0078H155.523V78.1367H149.559V77.2461H156.637ZM151.199 71.3281V72.2305H149.594V75.125C150.127 75.1074 150.713 75.0488 151.352 74.9023L151.457 75.8398C150.508 76.0391 149.746 76.0508 149.02 76.0508H148.539V71.3281H151.199ZM154.598 71.3281V72.2305H152.863V75.125C153.66 75.1191 154.234 75.0605 154.914 74.9023L155.031 75.8281C154.152 76.0156 153.473 76.0508 152.336 76.0508H151.797V71.3281H154.598ZM162.026 73.5898C162.026 75.3477 163.174 77.1641 164.791 77.8555L164.182 78.7227C162.946 78.1777 161.961 77.0234 161.475 75.6172C160.989 77.1172 159.998 78.3945 158.78 78.9922L158.135 78.1133C159.717 77.375 160.889 75.3945 160.901 73.5898V72.4766H158.498V71.5508H164.416V72.4766H162.026V73.5898ZM166.854 70.4961V80.9961H165.741V70.4961H166.854ZM177.727 75.3125V76.168H168.118V75.3125H177.727ZM176.544 76.9062V79.2148H170.38V80.082H176.872V80.8672H169.266V78.4766H175.442V77.7031H169.255V76.9062H176.544ZM176.52 70.7656V73.0391H170.45V73.8359H176.696V74.6211H169.348V72.3008H175.407V71.5508H169.325V70.7656H176.52ZM188.88 70.4961V72.9805H190.404V73.9062H188.88V76.625H187.767V70.4961H188.88ZM182.13 71.0938V72.6172H184.884V71.0938H185.986V76.0156H181.041V71.0938H182.13ZM182.13 75.1367H184.884V73.4961H182.13V75.1367ZM188.962 77.1758V78.0664H183.302V79.9648H189.15V80.8438H182.189V77.1758H188.962ZM195.383 70.6719C197.75 70.6719 199.133 71.3047 199.133 72.4766C199.133 73.6484 197.75 74.293 195.383 74.293C193.016 74.293 191.633 73.6484 191.633 72.4766C191.633 71.3047 193.016 70.6719 195.383 70.6719ZM195.383 71.4922C193.707 71.4922 192.781 71.8555 192.793 72.4766C192.781 73.1211 193.707 73.4609 195.383 73.4609C197.059 73.4609 197.984 73.1211 197.984 72.4766C197.984 71.8555 197.059 71.4922 195.383 71.4922ZM200.176 74.9375V75.8281H190.602V74.9375H200.176ZM198.969 76.6367V79.0977H192.852V80.0352H199.262V80.8906H191.762V78.2891H197.867V77.4688H191.75V76.6367H198.969ZM208.481 71.4219C208.47 72.8164 210.18 74.1289 212.243 74.3984L211.809 75.3125C210.093 75.0371 208.581 74.1465 207.907 72.9102C207.216 74.1523 205.71 75.0371 204.005 75.3125L203.559 74.3984C205.622 74.1289 207.309 72.8281 207.321 71.4219V70.8477H208.481V71.4219ZM212.677 76.3438V77.2578H208.411V80.9961H207.321V77.2578H203.102V76.3438H212.677ZM219.248 77.4336C219.248 78.3359 219.693 79.291 220.642 79.8594C221.609 79.2441 222.084 78.2363 222.084 77.4336V76.9297H223.173V77.4336C223.173 78.5234 223.888 79.5781 225.259 80.0234L224.709 80.8438C223.671 80.4863 222.968 79.7891 222.599 78.9219C222.265 79.7715 221.638 80.5391 220.677 80.9375C219.67 80.5566 219.031 79.8125 218.709 78.957C218.328 79.7832 217.636 80.4805 216.646 80.8438L216.084 80.0234C217.431 79.543 218.158 78.4531 218.17 77.4336V76.9297H219.248V77.4336ZM224.31 70.5078V76.4844H223.197V70.5078H224.31ZM218.615 71.082C220.22 71.082 221.404 72.1016 221.404 73.5664C221.404 75.0195 220.22 76.0273 218.615 76.0273C217.009 76.0273 215.814 75.0195 215.814 73.5664C215.814 72.1016 217.009 71.082 218.615 71.082ZM218.615 72.0312C217.619 72.0195 216.904 72.6406 216.904 73.5664C216.904 74.4805 217.619 75.1016 218.615 75.1016C219.599 75.1016 220.314 74.4805 220.314 73.5664C220.314 72.6406 219.599 72.0195 218.615 72.0312ZM228.422 71.2812C229.846 71.2812 230.889 72.4883 231.059 74.4336H233.227V70.4961H234.328V81.0195H233.227V75.3359H231.07C230.947 77.3809 229.881 78.6523 228.422 78.6523C226.852 78.6523 225.75 77.2227 225.762 74.9609C225.75 72.7109 226.852 71.2812 228.422 71.2812ZM228.422 72.2773C227.473 72.2773 226.816 73.3086 226.816 74.9609C226.816 76.625 227.473 77.6562 228.422 77.6562C229.371 77.6562 230.027 76.625 230.027 74.9609C230.027 73.3086 229.371 72.2773 228.422 72.2773ZM245.155 78.7578V79.6836H235.545V78.7578H237.842V76.0156C236.981 75.541 236.459 74.7852 236.459 73.8477C236.459 72.1953 238.077 71.1055 240.327 71.1055C242.588 71.1055 244.205 72.1953 244.205 73.8477C244.205 74.7734 243.702 75.5176 242.858 75.9922V78.7578H245.155ZM240.327 71.9961C238.674 71.9961 237.538 72.7109 237.538 73.8477C237.538 74.9727 238.674 75.7109 240.327 75.7109C241.967 75.7109 243.127 74.9727 243.127 73.8477C243.127 72.7109 241.967 71.9961 240.327 71.9961ZM238.944 78.7578H241.733V76.4141C241.305 76.5254 240.83 76.5781 240.327 76.5781C239.834 76.5781 239.366 76.5254 238.944 76.4258V78.7578ZM246.712 80.082C246.255 80.082 245.868 79.707 245.88 79.25C245.868 78.793 246.255 78.418 246.712 78.418C247.157 78.418 247.544 78.793 247.544 79.25C247.544 79.707 247.157 80.082 246.712 80.082Z" fill="#BCC3CE"/>
<path d="M172.448 10.9104C173.248 9.92535 174.752 9.92535 175.552 10.9104L184.35 21.7388C185.412 23.0458 184.482 25 182.798 25H165.202C163.518 25 162.588 23.0458 163.65 21.7388L172.448 10.9104Z" fill="#2F3032"/>
</g>
<defs>
<filter id="filter0_d_739_8365" x="0" y="0.171875" width="277" height="109.828" filterUnits="userSpaceOnUse" color-interpolation-filters="sRGB">
<feFlood flood-opacity="0" result="BackgroundImageFix"/>
<feColorMatrix in="SourceAlpha" type="matrix" values="0 0 0 0 0 0 0 0 0 0 0 0 0 0 0 0 0 0 127 0" result="hardAlpha"/>
<feOffset dy="2"/>
<feGaussianBlur stdDeviation="6"/>
<feComposite in2="hardAlpha" operator="out"/>
<feColorMatrix type="matrix" values="0 0 0 0 0 0 0 0 0 0 0 0 0 0 0 0 0 0 0.05 0"/>
<feBlend mode="normal" in2="BackgroundImageFix" result="effect1_dropShadow_739_8365"/>
<feBlend mode="normal" in="SourceGraphic" in2="effect1_dropShadow_739_8365" result="shape"/>
</filter>
</defs>
</svg>
