<svg width="126" height="115" viewBox="0 0 126 115" fill="none" xmlns="http://www.w3.org/2000/svg">
<circle cx="42" cy="73" r="42" fill="url(#paint0_linear_146_148)"/>
<path d="M32 89C32 89 32.5 82.0006 41.5 82C50.5 81.9994 51.5 89 51.5 89" stroke="url(#paint1_linear_146_148)" stroke-width="4" stroke-linecap="round"/>
<rect x="25" y="68" width="8" height="8" rx="4" fill="url(#paint2_linear_146_148)"/>
<path d="M31 61L24 65" stroke="url(#paint3_linear_146_148)" stroke-width="4" stroke-linecap="round"/>
<rect x="50" y="68" width="8" height="8" rx="4" fill="url(#paint4_linear_146_148)"/>
<path d="M52 61L59 65" stroke="url(#paint5_linear_146_148)" stroke-width="4" stroke-linecap="round"/>
<g filter="url(#filter0_d_146_148)">
<path d="M21.7376 90.1482C19.1398 89.4521 17.6017 86.6251 18.2493 84.2104C18.8968 81.7957 25.1874 77.2707 25.1874 77.2707C25.1874 77.2707 28.3745 84.3352 27.7274 86.75C27.0804 89.1648 24.3353 90.8442 21.7376 90.1482Z" fill="url(#paint6_radial_146_148)"/>
</g>
<rect x="100.555" y="53.3828" width="4" height="7" transform="rotate(-45 100.555 53.3828)" fill="#B5E0FF"/>
<rect x="95.6016" y="51.2617" width="8" height="7" transform="rotate(-45 95.6016 51.2617)" fill="#B5E0FF"/>
<rect x="102.918" y="59.2207" width="8.91466" height="23.401" transform="rotate(-45 102.918 59.2207)" fill="url(#paint7_linear_146_148)"/>
<rect x="101.633" y="60.4883" width="12.5223" height="4.11731" transform="rotate(-45 101.633 60.4883)" fill="#3B6C8F"/>
<circle cx="84.2894" cy="34.291" r="24.2463" transform="rotate(-45 84.2894 34.291)" fill="url(#paint8_linear_146_148)"/>
<circle cx="84.2879" cy="34.291" r="18" transform="rotate(-45 84.2879 34.291)" fill="url(#paint9_radial_146_148)"/>
<circle cx="76.4184" cy="25.4199" r="3" transform="rotate(-45 76.4184 25.4199)" fill="white"/>
<circle cx="73.0042" cy="33.4922" r="2" transform="rotate(-45 73.0042 33.4922)" fill="white"/>
<defs>
<filter id="filter0_d_146_148" x="16.1016" y="76.2715" width="13.7109" height="17.0352" filterUnits="userSpaceOnUse" color-interpolation-filters="sRGB">
<feFlood flood-opacity="0" result="BackgroundImageFix"/>
<feColorMatrix in="SourceAlpha" type="matrix" values="0 0 0 0 0 0 0 0 0 0 0 0 0 0 0 0 0 0 127 0" result="hardAlpha"/>
<feOffset dy="1"/>
<feGaussianBlur stdDeviation="1"/>
<feComposite in2="hardAlpha" operator="out"/>
<feColorMatrix type="matrix" values="0 0 0 0 0.783128 0 0 0 0 0.510414 0 0 0 0 0.0475189 0 0 0 1 0"/>
<feBlend mode="normal" in2="BackgroundImageFix" result="effect1_dropShadow_146_148"/>
<feBlend mode="normal" in="SourceGraphic" in2="effect1_dropShadow_146_148" result="shape"/>
</filter>
<linearGradient id="paint0_linear_146_148" x1="65.5" y1="40.5" x2="25.5" y2="109" gradientUnits="userSpaceOnUse">
<stop stop-color="#FFE281"/>
<stop offset="1" stop-color="#F39F19"/>
</linearGradient>
<linearGradient id="paint1_linear_146_148" x1="41.25" y1="76" x2="41.75" y2="89" gradientUnits="userSpaceOnUse">
<stop stop-color="#3C2F15"/>
<stop offset="1" stop-color="#776541"/>
</linearGradient>
<linearGradient id="paint2_linear_146_148" x1="29" y1="68" x2="29" y2="76" gradientUnits="userSpaceOnUse">
<stop stop-color="#3C2F15"/>
<stop offset="1" stop-color="#7B6A45"/>
</linearGradient>
<linearGradient id="paint3_linear_146_148" x1="27.3205" y1="57.5714" x2="27.7743" y2="64.9832" gradientUnits="userSpaceOnUse">
<stop stop-color="#3C2F15"/>
<stop offset="1" stop-color="#69562D"/>
</linearGradient>
<linearGradient id="paint4_linear_146_148" x1="54" y1="68" x2="54" y2="76" gradientUnits="userSpaceOnUse">
<stop stop-color="#3C2F15"/>
<stop offset="1" stop-color="#7B6A45"/>
</linearGradient>
<linearGradient id="paint5_linear_146_148" x1="55.6795" y1="57.5714" x2="55.2257" y2="64.9832" gradientUnits="userSpaceOnUse">
<stop stop-color="#3C2F15"/>
<stop offset="1" stop-color="#69562D"/>
</linearGradient>
<radialGradient id="paint6_radial_146_148" cx="0" cy="0" r="1" gradientUnits="userSpaceOnUse" gradientTransform="translate(24 81) rotate(104.931) scale(7.76209 5.78605)">
<stop stop-color="#61B1EA"/>
<stop offset="1" stop-color="#3C8CC6"/>
</radialGradient>
<linearGradient id="paint7_linear_146_148" x1="111.535" y1="67.6521" x2="102.52" y2="74.4212" gradientUnits="userSpaceOnUse">
<stop stop-color="#83C0EC"/>
<stop offset="1" stop-color="#54A2DA"/>
</linearGradient>
<linearGradient id="paint8_linear_146_148" x1="106.918" y1="27.5166" x2="91.2201" y2="58.4582" gradientUnits="userSpaceOnUse">
<stop stop-color="#83C0EC"/>
<stop offset="1" stop-color="#54A2DA"/>
</linearGradient>
<radialGradient id="paint9_radial_146_148" cx="0" cy="0" r="1" gradientUnits="userSpaceOnUse" gradientTransform="translate(84.2879 34.291) rotate(90) scale(18)">
<stop stop-color="#DDF0FF"/>
<stop offset="1" stop-color="#ECF7FF"/>
</radialGradient>
</defs>
</svg>
